<?xml version="1.0" encoding="utf-8"?>
<svg version="1.1" xmlns="http://www.w3.org/2000/svg" xmlns:xlink="http://www.w3.org/1999/xlink" x="0" y="0" viewBox="0 0 16 16">
    <style type="text/css">.st0{ fill:#FFFFFF; }</style>
    <path class="st0" d="M6.4,0.2C3.3,0.8,0.8,3.3,0.2,6.4c-1.2,5.8,4.1,10.2,8.1,9.6c1.3-0.2,1.9-1.7,1.3-2.9C8.9,11.7,9.9,10,11.5,10H14c1.1,0,2-0.9,2-2C16,3,11.5-0.8,6.4,0.2z M3,10c-0.6,0-1-0.4-1-1s0.4-1,1-1s1,0.4,1,1S3.6,10,3,10z M4,6C3.4,6,3,5.6,3,5s0.4-1,1-1s1,0.4,1,1S4.6,6,4,6z M8,4C7.4,4,7,3.6,7,3s0.4-1,1-1s1,0.4,1,1S8.6,4,8,4z M12,6c-0.6,0-1-0.4-1-1s0.4-1,1-1s1,0.4,1,1S12.6,6,12,6z" />
</svg>
