<?xml version="1.0" encoding="utf-8"?>
<svg version="1.1" xmlns="http://www.w3.org/2000/svg" xmlns:xlink="http://www.w3.org/1999/xlink" x="0" y="0" viewBox="0 0 16 16">
    <style type="text/css">.st0{ fill:#FFFFFF; }</style>
    <path class="st0" d="M8,7.7C7.6,7.7,7.3,8,7.3,8.4c0,2.3-0.3,4.4-0.9,6.6c-0.1,0.3,0.1,1,0.7,1c0.3,0,0.6-0.2,0.7-0.5c0.4-1.5,1-3.9,0.9-7C8.8,8,8.4,7.7,8,7.7L8,7.7z M8,5.1c-1.9,0-3.3,1.5-3.2,3.2c0,1.5-0.1,3-0.4,4.5c-0.1,0.4,0.2,0.8,0.6,0.9c0.4,0.1,0.8-0.2,0.9-0.6c0.3-1.6,0.5-3.2,0.4-4.8c0-0.8,0.6-1.6,1.7-1.6c1,0,1.8,0.8,1.8,1.7c0,1.5-0.1,3-0.3,4.5c-0.1,0.4,0.2,0.8,0.6,0.9c0.6,0.1,0.8-0.5,0.9-0.6c0.3-1.6,0.4-3.2,0.4-4.8C11.2,6.6,9.8,5.2,8,5.1L8,5.1z M4.5,4.5C4.2,4.3,3.7,4.3,3.5,4.6c-0.8,1-1.2,2.2-1.2,3.5c0,1.2-0.1,2.4-0.3,3.5c-0.1,0.4,0.2,0.8,0.6,0.9c0.6,0.1,0.8-0.5,0.9-0.6c0.2-1.2,0.3-2.5,0.3-3.8c0-0.9,0.3-1.8,0.9-2.5C4.9,5.2,4.8,4.8,4.5,4.5L4.5,4.5z M7.9,2.6c-0.5,0-1,0-1.4,0.2C6.1,2.8,5.9,3.2,6,3.6C6,4,6.5,4.3,6.9,4.2c0.3-0.1,0.7-0.1,1.1-0.1c2.4,0,4.3,1.9,4.3,4.2c0,1.2,0,2.4-0.2,3.6c0,0.4,0.2,0.8,0.7,0.8c0.5,0.1,0.8-0.4,0.8-0.7c0.1-1.2,0.2-2.5,0.2-3.7C13.7,5.2,11.1,2.6,7.9,2.6L7.9,2.6z M15.8,6.4c-0.1-0.4-0.5-0.7-0.9-0.6c-0.4,0.1-0.7,0.5-0.6,0.9c0.1,0.7,0.2,1.2,0.1,1.9c0,0.4,0.3,0.8,0.7,0.8h0C15.7,9.4,16,9,16,8.6C16,7.9,16,7.2,15.8,6.4L15.8,6.4z M14.6,3.5C13,1.4,10.5,0,7.9,0C5.7,0,3.7,0.8,2.2,2.3C0.8,3.7,0,5.7,0,7.7l0,0.7c0,0.4,0.3,0.8,0.7,0.8c0,0,0,0,0,0c0.4,0,0.7-0.3,0.7-0.7l0-0.7c0-1.6,0.6-3.2,1.8-4.3c1.2-1.2,2.9-1.9,4.6-1.8c2.2,0,4.2,1.1,5.5,2.9c0.2,0.3,0.7,0.4,1,0.2C14.7,4.3,14.8,3.9,14.6,3.5L14.6,3.5z" />
</svg>