<svg version="1.1" xmlns="http://www.w3.org/2000/svg" xmlns:xlink="http://www.w3.org/1999/xlink" x="0" y="0" viewBox="0 0 50 40">
	<g fill="#fff">
		<path d="M13.6,3.8C16.4,1.6,20.1,0.3,24,0c4.7-0.3,9.6,1.3,13.1,4.3c-1.7,0.4-3.1,1.6-4,3c-2.1-1.4-4.6-2.4-7.3-2.6C22.7,4.5,19.6,5.3,17,7C16.4,5.6,15,4.5,13.6,3.8z" />
		<path d="M9.7,4.6c1.9-0.4,3.9,0.1,5.1,1.4c1.9,1.7,2.3,4.6,1,6.7c-0.9,1.6-2.3,2.7-4,3c-2,0.4-4.3-0.3-5.6-1.9c-1.4-1.7-1.7-4.1-0.7-6.2C6.4,6.2,7.9,4.9,9.7,4.6z" />
		<path d="M38.3,5.2c1.6-0.3,3.3,0,4.4,1c1.4,1,2.1,2.6,2.3,4.1c0,1.7-0.7,3.4-2.1,4.6c-1,0.9-2.3,1.3-3.6,1.4c-2,0.1-4-0.9-5-2.4C33.1,12.2,33,9.8,34.1,8C35,6.6,36.6,5.6,38.3,5.2z" />
		<path d="M6.2,15.2c1.3,1.1,3,1.7,4.7,1.7C10,22.3,13,28.2,18.1,30.6c-1,1.4-1.4,3.1-1.1,4.9c-3.3-1.4-6.3-3.7-8.1-6.7C6,24.8,5.2,19.8,6.2,15.2z" />
		<path d="M38.6,17.5c1.7,0.1,3.4-0.4,4.9-1.4c0.4,4.3-0.6,8.6-3,12.2c-2.3,3.4-5.7,6-9.7,7.4c0.3-1.6,0-3.3-0.7-4.9C35.3,28.6,38.9,23.1,38.6,17.5z" />
		<path d="M23.1,28.8c1.4-0.1,2.9,0,4,0.9c2,1.3,3,3.9,2.4,6c-0.7,2.6-3.4,4.7-6.3,4.3c-2.1-0.1-4-1.6-4.7-3.4c-0.4-0.9-0.4-1.9-0.3-2.9C18.4,31.4,20.6,29.2,23.1,28.8z" />
	</g>
</svg>
